HIERARCHY
ROOT Hips
{
	OFFSET -0.179506 -22.333345 2.821913
	CHANNELS 6 Xposition Yposition Zposition Zrotation Yrotation Xrotation 
	JOINT LeftUpLeg
	{
		OFFSET 6.951974 -9.140623 -0.681533
		CHANNELS 3 Zrotation Yrotation Xrotation
		JOINT LeftLeg
		{
			OFFSET 3.427654 -37.519855 -0.449580
			CHANNELS 3 Zrotation Yrotation Xrotation
			JOINT LeftFoot
			{
				OFFSET -1.359570 -39.796059 -4.369333
				CHANNELS 3 Zrotation Yrotation Xrotation
				JOINT LeftToe
				{
					OFFSET 2.635814 -5.579078 11.928840
					CHANNELS 3 Zrotation Yrotation Xrotation
					End Site
					{
						OFFSET 0.000000 0.000000 0.000000
					}
				}
			}
		}
	}
	JOINT RightUpLeg
	{
		OFFSET -6.767048 -9.052170 -0.431982
		CHANNELS 3 Zrotation Yrotation Xrotation
		JOINT RightLeg
		{
			OFFSET -3.829005 -38.256897 -0.885003
			CHANNELS 3 Zrotation Yrotation Xrotation
			JOINT RightFoot
			{
				OFFSET 1.577377 -39.841461 -4.231180
				CHANNELS 3 Zrotation Yrotation Xrotation
				JOINT RightToe
				{
					OFFSET -2.537174 -4.814398 12.334795
					CHANNELS 3 Zrotation Yrotation Xrotation
					End Site
					{
						OFFSET 0.000000 0.000000 0.000000
					}
				}
			}
		}
	}
	JOINT Spine
	{
		OFFSET -0.253288 10.896323 -2.669631
		CHANNELS 3 Zrotation Yrotation Xrotation
		JOINT Spine1
		{
			OFFSET 0.548704 13.518043 0.109247
			CHANNELS 3 Zrotation Yrotation Xrotation
			JOINT Spine2
			{
				OFFSET 0.145701 5.292222 2.542457
				CHANNELS 3 Zrotation Yrotation Xrotation
				JOINT Neck
				{
					OFFSET -0.277840 21.387037 -4.285703
					CHANNELS 3 Zrotation Yrotation Xrotation
					JOINT Head
					{
						OFFSET 0.515184 6.496960 5.134897
						CHANNELS 3 Zrotation Yrotation Xrotation
						End Site
						{
							OFFSET 0.000000 0.000000 0.000000
						}
					}
				}
				JOINT LeftShoulder
				{
					OFFSET 7.884473 12.174932 -3.408961
					CHANNELS 3 Zrotation Yrotation Xrotation
					JOINT LeftArm
					{
						OFFSET 9.097692 3.046888 -0.886815
						CHANNELS 3 Zrotation Yrotation Xrotation
						JOINT LeftForeArm
						{
							OFFSET 25.961220 -1.277207 -2.745643
							CHANNELS 3 Zrotation Yrotation Xrotation
							JOINT LeftHand
							{
								OFFSET 24.923361 0.898606 -0.117091
								CHANNELS 3 Zrotation Yrotation Xrotation
								End Site
								{
									OFFSET 0.000000 0.000000 0.000000
								}
							}
						}
					}
				}
				JOINT RightShoulder
				{
					OFFSET -8.175920 11.883285 -3.861528
					CHANNELS 3 Zrotation Yrotation Xrotation
					JOINT RightArm
					{
						OFFSET -9.601238 3.255117 -0.914307
						CHANNELS 3 Zrotation Yrotation Xrotation
						JOINT RightForeArm
						{
							OFFSET -25.374195 -1.332924 -2.140099
							CHANNELS 3 Zrotation Yrotation Xrotation
							JOINT RightHand
							{
								OFFSET -25.529810 0.777228 -0.555919
								CHANNELS 3 Zrotation Yrotation Xrotation
								End Site
								{
									OFFSET 0.000000 0.000000 0.000000
								}
							}
						}
					}
				}
			}
		}
	}
}
MOTION
Frames: 5
Frame Time: 0.033333
-20.628637 109.510376 -10.123925 -174.949380 36.497320 -164.853712 11.843300 -4.048594 -32.987277 -3.746776 -9.094891 27.699498 -8.869228 7.785146 10.479135 3.247068 1.222932 -2.076543 -4.874869 1.330979 -24.069397 4.530485 5.024756 22.756922 10.862355 -0.901689 12.089618 8.163232 -1.880938 0.063399 1.053995 2.116464 22.542487 2.069791 -1.610642 4.206135 4.650469 -1.118074 -0.865296 -3.285219 1.884254 -0.820928 9.487938 8.158653 -10.953367 -17.075668 1.869054 -0.000592 -24.812417 -4.257572 -4.505864 13.986494 -38.671467 -22.573773 19.536124 -11.679379 -13.642914 10.664290 -1.594248 1.982275 32.203571 -8.030480 1.061232 -8.571520 32.870742 -13.493829 -9.611069 11.680596 -7.722222 
-20.187513 103.011185 -10.027797 -176.982099 31.809307 -167.462036 7.789254 -7.077065 -33.602622 -6.460850 -5.706882 35.635344 -2.497679 8.334063 -5.465158 4.935874 1.430707 -2.361035 -3.210223 4.078223 -22.866080 5.354033 4.036229 29.847017 2.618130 -2.193048 -6.104290 8.636704 -2.561713 0.089220 1.393322 2.395291 21.671934 3.514141 -3.722471 5.259342 3.062291 -1.064155 -1.321626 -1.791612 2.902349 -2.631971 6.702498 6.484613 -8.785954 -19.850651 0.143111 0.535308 -39.265002 -12.155993 1.306429 14.186914 -33.564045 -18.646545 18.152140 -10.044553 -16.242753 14.458227 0.210178 1.137150 43.448722 -4.515939 6.150445 -12.101364 32.576606 -14.469733 -10.177125 10.958019 -12.152799 
-19.898027 96.545845 -9.968633 -176.537196 29.107225 -171.314862 7.254743 -8.041614 -38.498973 -6.678109 -0.981763 52.383099 1.919543 10.809977 -18.898430 6.117781 1.234612 -2.469432 -1.372647 4.968558 -24.744425 4.982795 0.894730 43.034910 -3.979507 -5.266303 -21.941614 8.339731 -2.793216 -0.051506 1.972669 2.933994 21.554702 4.535278 -4.449640 4.970032 1.817805 -0.694546 -1.883988 -0.250760 5.793203 -4.703056 3.200742 6.374443 -6.715351 -23.226364 -0.833504 1.380417 -48.533527 -13.052806 7.389537 10.509246 -27.390490 -10.782041 16.614681 -10.147174 -13.828822 18.938447 2.697413 0.606966 48.838909 -1.510450 11.567332 -12.855230 36.331163 -11.526861 -12.190168 11.566076 -15.058526 
-19.114550 92.872253 -10.159006 -175.921804 27.731787 -174.119268 7.373091 -8.825871 -41.153694 -6.945520 -0.433406 63.181580 3.303259 11.184890 -24.209098 6.344326 0.831942 -2.386968 0.639082 5.212619 -25.277524 3.395572 -0.372130 51.521377 -6.934628 -7.988161 -30.259535 8.118990 -2.706543 -0.734975 1.814027 3.600656 21.183462 4.997551 -4.242640 5.146152 0.953882 -0.548225 -1.748466 0.153174 9.853493 -6.327916 0.287889 5.403562 -6.160760 -26.200344 0.029611 3.581376 -52.446814 -7.546676 11.522849 4.246899 -26.920627 1.059910 12.469066 -12.912695 -8.510676 20.818417 5.051018 0.055838 51.910587 0.933908 15.418252 -17.057153 52.091961 -8.636348 -14.002595 12.629165 -16.711258 
-17.961136 94.515175 -11.079691 -176.591798 27.408743 -174.770176 7.125552 -8.482891 -37.085800 -8.372136 -1.627723 56.441663 3.242249 9.234305 -22.080786 6.327951 0.866417 -2.489494 1.106627 3.799563 -20.105522 3.134961 0.637434 44.993441 -7.577407 -7.992442 -27.559511 8.686846 -2.669283 -1.312763 0.399915 5.026826 17.684639 4.901781 -3.300041 5.620749 0.120965 -0.309338 -1.270926 0.222353 10.817146 -4.603949 -0.524516 3.844157 -3.770412 -26.714953 4.748961 6.389309 -50.055408 2.150319 13.228255 -6.167142 -37.833452 15.587977 7.845569 -15.906959 -6.915599 20.514286 3.580971 0.429911 52.515243 0.130969 15.809852 -48.562238 75.440817 -37.603370 -17.177276 12.863588 -23.100246 
